<svg xmlns="http://www.w3.org/2000/svg" width="100" height="87" viewBox="0 0 100 87">
    <path fill="#0F97C7" fill-rule="evenodd" d="M98.073 63.052L65.567 9.847C61.82 4.364 57.007 0 50.014 0S38.21 4.364 34.461 9.847L1.788 63.332c-2.462 5.035-2.462 10.91.503 15.777 2.686 4.308 7.273 7.105 12.365 7.105h70.717c5.035 0 9.678-2.797 12.308-7.105 2.965-4.811 3.077-11.077.392-16.057zm-32.897-23.05c1.398 1.399 1.398 3.693 0 5.035l-7.61 7.61 7.61 7.552a3.613 3.613 0 0 1 0 5.091l-2.518 2.518a3.613 3.613 0 0 1-5.091 0l-7.553-7.609-7.609 7.609c-1.342 1.399-3.636 1.399-5.035 0l-2.518-2.518a3.613 3.613 0 0 1 0-5.09l7.553-7.554-7.553-7.609c-1.398-1.342-1.398-3.636 0-5.035l2.518-2.517c1.399-1.4 3.693-1.4 5.035 0l7.61 7.552 7.552-7.552a3.613 3.613 0 0 1 5.091 0l2.518 2.517z"/>
</svg>
