<svg xmlns="http://www.w3.org/2000/svg" width="100" height="100" viewBox="0 0 100 100">
    <path fill="#F56F64" fill-rule="evenodd" d="M26.513 93.686l12.706-3.85 8.15 8.983c1.476 1.605 3.786 1.476 5.262-.064l8.15-8.92 12.77 3.915c2.31.706 4.62-1.027 4.62-3.401l.065-10.974 12.45-1.54c2.438-.321 3.85-2.888 2.823-5.07l-4.62-10.717 10.01-9.497c1.413-1.348 1.477-3.594.13-5.006l-10.14-9.626 4.684-10.845c.963-2.182-.513-4.62-2.887-4.941l-12.45-1.54-.064-10.974c0-2.439-2.439-4.107-4.685-3.401l-12.706 3.914-8.15-8.984c-1.476-1.604-3.786-1.476-5.262.064l-8.15 8.92-12.77-3.914c-2.31-.706-4.62 1.027-4.62 3.401l-.065 10.974-12.45 1.54c-2.438.32-3.85 2.888-2.823 5.07l4.62 10.716-10.01 9.498C-.313 48.765-.377 51.01.97 52.422l10.14 9.626-4.684 10.846c-.963 2.181.513 4.62 2.887 4.94l12.45 1.541.064 10.974c0 2.438 2.439 4.107 4.685 3.337zM50 57.556l-7.572 7.573a3.564 3.564 0 0 1-5.07 0l-2.503-2.503a3.564 3.564 0 0 1 0-5.07l7.573-7.572-7.573-7.573a3.564 3.564 0 0 1 0-5.07l2.503-2.502a3.564 3.564 0 0 1 5.07 0L50 42.411l7.572-7.572a3.564 3.564 0 0 1 5.07 0l2.503 2.503a3.564 3.564 0 0 1 0 5.07l-7.573 7.572 7.573 7.572a3.564 3.564 0 0 1 0 5.07l-2.503 2.503a3.564 3.564 0 0 1-5.07 0L50 57.556z"/>
</svg>
