<svg xmlns="http://www.w3.org/2000/svg" width="100" height="87" viewBox="0 0 100 87">
    <path fill="#F5B064" fill-rule="evenodd" d="M50.014 68.97c-2.972 0-5.383-2.356-5.383-5.328a5.384 5.384 0 0 1 5.383-5.383c2.972 0 5.327 2.412 5.327 5.383a5.29 5.29 0 0 1-5.327 5.327zm48.054-5.944L65.546 9.813c-1.794-2.636-3.813-4.99-6.28-6.785C56.631 1.12 53.603 0 50.014 0c-3.589 0-6.616 1.121-9.308 3.028-2.411 1.794-4.43 4.15-6.224 6.785L1.792 63.306c-2.467 5.103-2.467 10.934.504 15.812 2.636 4.318 7.29 7.066 12.336 7.066H85.34c5.102 0 9.7-2.748 12.336-7.066 2.972-4.822 3.084-11.102.392-16.092zM50.014 52.932c-1.962 0-3.364-1.626-3.589-3.588L44.631 33.25c-.28-2.748 2.636-5.327 5.383-5.327 2.748 0 5.663 2.58 5.327 5.327l-1.794 16.093c-.169 1.962-1.57 3.588-3.533 3.588z"/>
</svg>
