<svg xmlns="http://www.w3.org/2000/svg" width="57" height="15" viewBox="0 0 57 15">
    <path fill="#252529" fill-rule="evenodd" d="M8.61 10.254l1.89 3.801c.168.336-.084.735-.441.735H7.623a.51.51 0 0 1-.441-.294L5.544 11.22H3.759v3.066a.511.511 0 0 1-.504.504H.714a.497.497 0 0 1-.504-.504V1.077C.21.783.42.573.714.573h4.725c2.919 0 5.397 2.31 5.418 5.25.042 1.827-.861 3.444-2.247 4.431zM3.759 7.671h1.785a1.775 1.775 0 0 0 0-3.549H3.759v3.549zM18.438.342c2.94 0 5.313 2.394 5.313 5.334v3.99A5.31 5.31 0 0 1 18.438 15a5.315 5.315 0 0 1-5.334-5.334v-3.99A5.328 5.328 0 0 1 18.438.342zm1.764 9.324v-3.99a1.78 1.78 0 0 0-1.764-1.785c-.987 0-1.785.798-1.785 1.785v3.99c0 .987.798 1.785 1.785 1.785a1.78 1.78 0 0 0 1.764-1.785zm13.524-3.759L37.128.783a.548.548 0 0 1 .42-.21h2.793c.273 0 .504.21.504.504v13.209a.511.511 0 0 1-.504.504H37.8a.497.497 0 0 1-.504-.504V6.789l-3.15 4.704c-.189.294-.63.294-.84 0l-3.129-4.704v7.497a.511.511 0 0 1-.504.504h-2.541a.497.497 0 0 1-.504-.504V1.077c0-.294.21-.504.504-.504h2.772c.168 0 .336.084.42.21l3.402 5.124zm22.323 8.883h-2.478a.5.5 0 0 1-.462-.336l-.546-1.449h-5.775l-.546 1.449c-.084.189-.252.336-.462.336h-2.499c-.336 0-.588-.357-.462-.693L47.775.888a.48.48 0 0 1 .462-.315h2.856a.53.53 0 0 1 .483.315l4.956 13.209a.515.515 0 0 1-.483.693zm-4.83-5.334l-1.554-4.158-1.554 4.158h3.108z"/>
</svg>
